HIERARCHY
ROOT root
{
	OFFSET	0	13.1	24.9
	CHANNELS 6  Xposition Yposition Zposition Xrotation Yrotation Zrotation
	JOINT spine_1
	{
		OFFSET	0	9.99999	0
		CHANNELS 3  Xrotation Yrotation Zrotation
		JOINT spine_2
		{
			OFFSET	0	112	-10
			CHANNELS 3  Xrotation Yrotation Zrotation
			JOINT spine_3
			{
				OFFSET	0	206.5	19.3
				CHANNELS 3  Xrotation Yrotation Zrotation
				JOINT spine_4
				{
					OFFSET	0	110.4	14.6
					CHANNELS 3  Xrotation Yrotation Zrotation
					JOINT neck_1
					{
						OFFSET	0	71.8	-50.3
						CHANNELS 3  Xrotation Yrotation Zrotation
						JOINT neck_2
						{
							OFFSET	0	86.2	-25.8
							CHANNELS 3  Xrotation Yrotation Zrotation
							JOINT head_ee
							{
								OFFSET	0	179.8	-8.7
								CHANNELS 3  Xrotation Yrotation Zrotation
								End Site
								{
									OFFSET	1	0	0
								}
							}
						}
					}
					JOINT left_clavicle
					{
						OFFSET	-43.2	22.4	-70.8
						CHANNELS 3  Xrotation Yrotation Zrotation
						JOINT left_shoulder
						{
							OFFSET	-93.9	-5.79999	48.7
							CHANNELS 3  Xrotation Yrotation Zrotation
							JOINT left_elbow
							{
								OFFSET	-291.4	-30.8	15.2
								CHANNELS 3  Xrotation Yrotation Zrotation
								JOINT left_lowarm_twist
								{
									OFFSET	-110.7	-3.89999	13.6
									CHANNELS 3  Xrotation Yrotation Zrotation
									JOINT left_hand
									{
										OFFSET	-110.7	-3.89999	13.6
										CHANNELS 3  Xrotation Yrotation Zrotation
										JOINT left_ee
										{
											OFFSET	-80.8	-5.10001	12.1
											CHANNELS 3  Xrotation Yrotation Zrotation
											End Site
											{
												OFFSET	1	0	0
											}
										}
									}
								}
							}
						}
					}
					JOINT right_clavicle
					{
						OFFSET	43.2	22.4	-70.8
						CHANNELS 3  Xrotation Yrotation Zrotation
						JOINT right_shoulder
						{
							OFFSET	93.9	-5.79999	48.7
							CHANNELS 3  Xrotation Yrotation Zrotation
							JOINT right_elbow
							{
								OFFSET	291.4	-30.8	15.2
								CHANNELS 3  Xrotation Yrotation Zrotation
								JOINT right_lowarm_twist
								{
									OFFSET	110.7	-3.89999	13.6
									CHANNELS 3  Xrotation Yrotation Zrotation
									JOINT right_hand
									{
										OFFSET	110.7	-3.89999	13.6
										CHANNELS 3  Xrotation Yrotation Zrotation
										JOINT right_ee
										{
											OFFSET	80.8	-5.10001	12.1
											CHANNELS 3  Xrotation Yrotation Zrotation
											End Site
											{
												OFFSET	1	0	0
											}
										}
									}
								}
							}
						}
					}
				}
			}
		}
	}
	JOINT left_hip
	{
		OFFSET	-82.8	-127.5	0.300001
		CHANNELS 3  Xrotation Yrotation Zrotation
		JOINT left_knee
		{
			OFFSET	-28.2	-396.7	2.2
			CHANNELS 3  Xrotation Yrotation Zrotation
			JOINT left_ankle
			{
				OFFSET	-11.7	-411.3	35.4
				CHANNELS 3  Xrotation Yrotation Zrotation
				JOINT left_toes
				{
					OFFSET	0	-60	-88.6
					CHANNELS 3  Xrotation Yrotation Zrotation
					JOINT left_foot_ee
					{
						OFFSET	-22.5	-16.5	-42.2
						CHANNELS 3  Xrotation Yrotation Zrotation
						End Site
						{
							OFFSET	1	0	0
						}
					}
				}
			}
		}
	}
	JOINT right_hip
	{
		OFFSET	82.8	-127.5	0.300001
		CHANNELS 3  Xrotation Yrotation Zrotation
		JOINT right_knee
		{
			OFFSET	28.2	-396.7	2.2
			CHANNELS 3  Xrotation Yrotation Zrotation
			JOINT right_ankle
			{
				OFFSET	11.7	-411.3	35.4
				CHANNELS 3  Xrotation Yrotation Zrotation
				JOINT right_toes
				{
					OFFSET	0	-60	-88.6
					CHANNELS 3  Xrotation Yrotation Zrotation
					JOINT right_foot_ee
					{
						OFFSET	22.5	-16.5	-42.2
						CHANNELS 3  Xrotation Yrotation Zrotation
						End Site
						{
							OFFSET	1	0	0
						}
					}
				}
			}
		}
	}
}
MOTION
Frames: 9
Frame Time: 0.02
220.665 766.211 -1136.63 178.916 -59.166 171.846 -1.6001 0.340194 1.38194 -1.59907 0.251577 1.40078 -1.59179 -0.0879365 1.42047 -1.59458 0.137481 1.41653 -6.17615 11.47 7.15128 -6.03673 15.9936 9.35247 -0.0 0.0 -0.0 7.13382 10.617 13.5916 -32.3368 -36.627 44.2638 1.21368 -31.014 0.336756 -30.9716 -2.04609 3.33978 -4.37644 23.3345 -16.0903 -0.0 0.0 -0.0 11.1588 3.10926 -22.2464 -22.7114 26.6833 -51.6508 0.820729 22.1248 -0.160464 50.8479 1.03018 6.2029 0.635859 11.0269 0.396368 0.0 0.0 0.0 4.33321 -15.7747 -2.6906 -5.78666 0.194632 0.866378 -8.33596 29.5582 1.32715 18.2928 -0.0 -0.0 -0.0 0.0 -0.0 -0.592949 -30.2784 3.03659 6.82259 0.340439 0.990609 22.2676 -15.2291 3.03962 -3.81519 0.0 0.0 0.0 0.0 0.0 
218.283 768.557 -1134.61 178.445 -59.4321 171.17 -1.69337 0.510518 1.35541 -1.69245 0.423243 1.38514 -1.68096 0.0803427 1.44612 -1.68375 0.307699 1.41529 -6.14891 12.1632 6.98231 -6.01234 17.4025 9.3112 -0.0 0.0 -0.0 6.86217 10.6863 13.1069 -31.9206 -36.4392 44.498 1.2968 -32.7149 0.380637 -29.8339 -1.94047 3.23915 -4.50809 25.2519 -15.5872 -0.0 0.0 -0.0 11.4358 3.19532 -22.8485 -22.2787 26.5301 -52.0672 0.797961 21.5681 -0.151992 50.8053 1.02706 6.19842 0.633377 11.3353 0.545486 0.0 0.0 0.0 4.53979 -14.3275 -2.31822 -6.46655 0.211724 0.969315 -11.9474 27.7413 1.88874 18.2774 -0.0 -0.0 -0.0 0.0 -0.0 -0.420901 -30.7963 3.42687 6.10218 0.298935 0.887969 21.4076 -12.334 2.91627 -3.45374 0.0 0.0 0.0 0.0 0.0 
216.62 771.198 -1136.03 178.334 -60.4574 171.61 -1.88047 0.493617 1.29443 -1.87964 0.410256 1.32321 -1.86896 0.0779718 1.38315 -1.87151 0.295415 1.35348 -6.21839 12.2658 4.54974 -6.14848 19.3975 6.91363 -0.0 0.0 -0.0 6.66287 10.1411 12.7742 -32.4201 -37.0272 43.9595 1.40695 -34.873 0.441915 -30.3119 -1.9846 3.28169 -4.27477 24.5632 -14.6717 -0.0 0.0 -0.0 11.3647 2.3439 -22.6516 -20.7478 26.8763 -52.5658 0.80203 21.6679 -0.153491 49.9682 0.966532 6.10995 1.00867 12.832 -1.33766 0.0 0.0 0.0 4.73865 -14.6021 -2.6486 -4.81907 0.168202 0.72024 -12.7153 30.3897 2.04658 17.013 -0.0 -0.0 -0.0 0.0 -0.0 -0.342022 -31.1031 2.88003 5.87005 0.285838 0.854787 21.1763 -12.8083 2.89015 -3.44075 0.0 0.0 0.0 0.0 0.0 
212.103 770.417 -1137.25 178.801 -61.4435 172.501 -2.06198 0.492397 1.32931 -2.06109 0.40682 1.35794 -2.05013 0.0617573 1.41621 -2.05282 0.284624 1.38869 -3.49565 13.2894 3.88166 -3.31414 21.2771 6.00633 -0.0 0.0 -0.0 6.33248 11.2314 12.1558 -31.9465 -37.776 42.8035 1.50291 -36.6652 0.498014 -31.4722 -2.0932 3.38339 -3.9897 20.4899 -15.5636 -0.0 0.0 -0.0 11.397 0.563393 -22.614 -18.6954 26.6569 -53.0119 0.792955 21.4451 -0.150156 48.4204 0.858062 5.94411 1.25323 14.8482 -2.10117 0.0 0.0 0.0 3.29078 -9.42557 -3.26533 0.255295 -0.0105964 -0.037744 -12.7939 29.8216 2.05141 17.2446 -0.0 -0.0 -0.0 0.0 -0.0 0.13678 -34.1768 2.06971 5.77622 0.280582 0.841361 19.6725 -14.0926 2.70982 -3.07339 0.0 0.0 0.0 0.0 0.0 
213.313 769.917 -1141.63 178.764 -61.8392 172.67 -2.01279 0.444174 1.2892 -2.01194 0.361246 1.31485 -2.00245 0.0292498 1.36325 -2.00496 0.244163 1.34153 -3.13724 13.4929 2.50266 -2.92767 22.6478 4.55315 -0.0 0.0 -0.0 6.29449 10.7329 12.1042 -31.9887 -38.386 42.5694 1.58441 -38.1244 0.547511 -32.5474 -2.19567 3.47568 -3.84663 21.2692 -14.2016 -0.0 0.0 -0.0 11.3771 -0.420043 -22.5028 -17.1065 26.1629 -54.0877 0.768043 20.83 -0.141172 48.831 0.886396 5.98839 1.29562 14.8405 -2.38919 0.0 0.0 0.0 3.64276 -15.04 -3.14981 -1.88122 0.0728742 0.279492 -13.4287 30.0477 2.15783 17.5033 -0.0 -0.0 -0.0 0.0 -0.0 0.124737 -31.4261 3.06846 5.73604 0.278338 0.835608 16.7313 -11.834 2.32452 -3.32429 0.0 0.0 0.0 0.0 0.0 
212.203 766.725 -1145.29 179.41 -63.7866 174.249 -2.08956 0.287377 1.25844 -2.0887 0.206724 1.27417 -2.08306 -0.11251 1.28591 -2.08535 0.0919711 1.28755 -2.86943 13.4818 1.98806 -2.64062 22.9789 3.97097 -0.0 0.0 -0.0 6.47775 10.545 12.4327 -31.9014 -41.4312 41.0159 1.35446 -33.8584 0.412289 -32.6736 -2.20781 3.48638 -3.72677 25.7416 -10.7443 -0.0 0.0 -0.0 11.2052 -0.865282 -22.1084 -16.6452 25.9636 -54.0352 0.756142 20.5344 -0.136969 47.4642 0.793311 5.84023 1.61125 15.0945 -4.3971 0.0 0.0 0.0 3.39636 -13.7691 -4.05968 0.934279 -0.039598 -0.137899 -9.77762 28.7091 1.55105 17.0202 -0.0 -0.0 -0.0 0.0 -0.0 -0.504736 -33.8017 0.692042 6.26589 0.308253 0.911338 18.1913 -12.9333 2.51624 -2.66364 0.0 0.0 0.0 0.0 0.0 
215.347 768.465 -1148.07 179.254 -64.4034 174.352 -2.23488 0.287846 1.31737 -2.23394 0.203443 1.33301 -2.22803 -0.13354 1.34182 -2.23054 0.0800307 1.34607 -1.42321 12.6139 -0.779241 -1.07987 23.3472 0.686319 -0.0 0.0 -0.0 6.23211 10.7189 11.995 -30.9102 -40.0079 42.1145 1.43965 -35.4928 0.460756 -34.156 -2.35217 3.61014 -3.59377 23.9251 -11.0782 -0.0 0.0 -0.0 11.2141 -2.0366 -22.0353 -15.9669 25.6521 -54.406 0.767719 20.822 -0.141058 47.7996 0.815827 5.8768 1.79748 15.3997 -5.51281 0.0 0.0 0.0 2.71349 -13.0234 -4.40104 2.56209 -0.113954 -0.376591 -11.6865 29.3277 1.86551 17.1565 -0.0 -0.0 -0.0 0.0 -0.0 -0.667141 -32.6879 0.616643 6.18452 0.303613 0.899725 17.0428 -13.0912 2.36938 -1.94898 0.0 0.0 0.0 0.0 0.0 
218.005 770.003 -1154.52 -179.85 -64.6199 175.238 -2.26983 0.339406 1.37468 -2.26882 0.251253 1.39349 -2.26138 -0.103036 1.4122 -2.26414 0.121265 1.41075 -1.53701 13.3717 0.374545 -1.20338 23.8208 2.02135 -0.0 0.0 -0.0 6.18025 12.2449 11.8599 -29.8166 -40.7788 42.4586 1.45729 -35.8233 0.471041 -33.7305 -2.31041 3.575 -3.61829 23.8172 -11.2863 -0.0 0.0 -0.0 11.2038 -2.13847 -22.0055 -15.5122 25.4805 -54.1158 0.755054 20.5074 -0.136588 48.1523 0.839735 5.9151 1.99264 16.4519 -6.34781 0.0 0.0 0.0 3.30057 -12.369 -4.0943 3.97763 -0.184116 -0.582405 -11.1391 27.1818 1.75353 16.5615 -0.0 -0.0 -0.0 0.0 -0.0 -0.296568 -31.8025 0.991544 6.35536 0.313373 0.924098 14.0238 -13.317 1.9738 -3.07645 0.0 0.0 0.0 0.0 0.0 
220.152 766.289 -1158.18 179.816 -65.2204 176.065 -2.28722 0.269799 1.32145 -2.28626 0.185173 1.33593 -2.28077 -0.153203 1.33998 -2.28327 0.060324 1.34735 -1.02161 13.2195 -0.165659 -0.647536 23.8939 1.33284 -0.0 0.0 -0.0 6.14438 12.0225 11.805 -29.4533 -41.4561 42.78 1.43176 -35.3442 0.456186 -33.4846 -2.28639 3.55455 -3.41727 24.2418 -9.8648 -0.0 0.0 -0.0 11.1359 -2.64914 -21.8222 -15.0968 25.4088 -54.6844 0.768611 20.8441 -0.141375 47.8412 0.81863 5.88131 2.08184 16.4173 -6.9636 0.0 0.0 0.0 2.78883 -11.2284 -4.99279 5.35999 -0.257534 -0.781699 -10.8002 26.7696 1.69548 16.485 -0.0 -0.0 -0.0 0.0 -0.0 -0.995977 -31.6826 -0.0850689 6.29996 0.3102 0.916198 13.5911 -13.4645 1.91651 -3.0269 0.0 0.0 0.0 0.0 0.0 
